<svg xmlns="http://www.w3.org/2000/svg" width="15.744" height="23" viewBox="0 0 15.744 23">
    <g id="prayer-mat" transform="translate(-13.176 -2.5)">
        <path id="Path_9" data-name="Path 9" d="M0,0H18.915V13.431H0Z" transform="translate(27.764 4.543) rotate(90)" fill="#6fc666"/>
        <path id="Path_10" data-name="Path 10" d="M30.109,8.63V27.543h-.987V9.58H16.68V8.63Z" transform="translate(-2.346 -4.087)" fill="#65b54e"/>
        <path id="Path_11" data-name="Path 11" d="M19.784,61.02h-.661a.166.166,0,0,1-.165-.167v-.667a.165.165,0,1,1,.33,0v.5h.5a.167.167,0,0,1,0,.333Z" transform="translate(-3.871 -38.347)" fill="#323c6b"/>
        <path id="Path_12" data-name="Path 12" d="M19.123,30.419a.166.166,0,0,1-.165-.167V28.827a.165.165,0,1,1,.33,0v1.425A.166.166,0,0,1,19.123,30.419Zm0-2.851a.166.166,0,0,1-.165-.167V25.976a.165.165,0,1,1,.33,0V27.4A.166.166,0,0,1,19.123,27.568Zm0-2.851a.166.166,0,0,1-.165-.167V23.125a.165.165,0,1,1,.33,0v1.425A.166.166,0,0,1,19.123,24.717Zm0-2.851a.166.166,0,0,1-.165-.167V20.274a.165.165,0,1,1,.33,0V21.7A.166.166,0,0,1,19.123,21.866Zm0-2.851a.166.166,0,0,1-.165-.167V17.424a.165.165,0,1,1,.33,0v1.425A.166.166,0,0,1,19.123,19.016Z" transform="translate(-3.871 -9.838)" fill="#323c6b"/>
        <path id="Path_13" data-name="Path 13" d="M19.123,11.98a.166.166,0,0,1-.165-.167v-.667a.166.166,0,0,1,.165-.167h.661a.167.167,0,0,1,0,.333h-.5v.5A.166.166,0,0,1,19.123,11.98Z" transform="translate(-3.871 -5.653)" fill="#323c6b"/>
        <path id="Path_14" data-name="Path 14" d="M32.9,11.313H31.434a.167.167,0,0,1,0-.333H32.9a.167.167,0,0,1,0,.333Zm-2.935,0H28.5a.167.167,0,0,1,0-.333h1.467a.167.167,0,0,1,0,.333Zm-2.935,0H25.565a.167.167,0,0,1,0-.333h1.467a.167.167,0,0,1,0,.333Z" transform="translate(-8.185 -5.653)" fill="#323c6b"/>
        <path id="Path_15" data-name="Path 15" d="M52.868,11.98a.166.166,0,0,1-.165-.167v-.5h-.5a.167.167,0,0,1,0-.333h.661a.166.166,0,0,1,.165.167v.667A.166.166,0,0,1,52.868,11.98Z" transform="translate(-26.024 -5.653)" fill="#323c6b"/>
        <path id="Path_16" data-name="Path 16" d="M54.207,30.419a.166.166,0,0,1-.165-.167V28.827a.165.165,0,1,1,.33,0v1.425A.166.166,0,0,1,54.207,30.419Zm0-2.851a.166.166,0,0,1-.165-.167V25.976a.165.165,0,1,1,.33,0V27.4A.166.166,0,0,1,54.207,27.568Zm0-2.851a.166.166,0,0,1-.165-.167V23.125a.165.165,0,1,1,.33,0v1.425A.166.166,0,0,1,54.207,24.717Zm0-2.851a.166.166,0,0,1-.165-.167V20.275a.165.165,0,1,1,.33,0V21.7A.166.166,0,0,1,54.207,21.866Zm0-2.851a.166.166,0,0,1-.165-.167V17.424a.165.165,0,1,1,.33,0v1.425A.166.166,0,0,1,54.207,19.016Z" transform="translate(-27.363 -9.838)" fill="#323c6b"/>
        <path id="Path_17" data-name="Path 17" d="M52.868,61.02h-.661a.167.167,0,0,1,0-.333h.5v-.5a.165.165,0,1,1,.33,0v.667A.166.166,0,0,1,52.868,61.02Z" transform="translate(-26.024 -38.347)" fill="#323c6b"/>
        <path id="Path_18" data-name="Path 18" d="M32.9,62.353H31.434a.167.167,0,0,1,0-.333H32.9a.167.167,0,0,1,0,.333Zm-2.935,0H28.5a.167.167,0,0,1,0-.333h1.467a.167.167,0,0,1,0,.333Zm-2.935,0H25.565a.167.167,0,0,1,0-.333h1.467a.167.167,0,0,1,0,.333Z" transform="translate(-8.185 -39.68)" fill="#323c6b"/>
        <path id="Path_19" data-name="Path 19" d="M0,0H15.169V9.8H0Z" transform="translate(25.949 6.415) rotate(90)" fill="#eeefee"/>
        <path id="Path_20" data-name="Path 20" d="M49.12,14.25h.9V29.417h-.9Z" transform="translate(-24.067 -7.833)" fill="#e1e6e9"/>
        <path id="Path_21" data-name="Path 21" d="M30.044,17.863a3.023,3.023,0,0,1-1.581,1.013,1.548,1.548,0,0,0-.7,2.208,2.712,2.712,0,0,0-1.154,1.482v8.056h6.865V22.566a2.712,2.712,0,0,0-1.154-1.482,1.548,1.548,0,0,0-.7-2.208A3.022,3.022,0,0,1,30.044,17.863Z" transform="translate(-8.996 -10.242)" fill="#6fc666"/>
        <path id="Path_22" data-name="Path 22" d="M39.081,22.563V30.62h-.889V22.9a2.71,2.71,0,0,0-1.153-1.48,1.549,1.549,0,0,0-.7-2.21,3.983,3.983,0,0,1-1.361-.763,2.018,2.018,0,0,0,.667-.583,3.023,3.023,0,0,0,1.583,1.013,1.548,1.548,0,0,1,.694,2.21,2.7,2.7,0,0,1,1.157,1.48Z" transform="translate(-14.599 -10.24)" fill="#65b54e"/>
        <g id="Group_3" data-name="Group 3" transform="translate(13.176 2.5)">
            <path id="Path_23" data-name="Path 23" d="M19.54,4.709a.166.166,0,0,1-.165-.167V2.667a.165.165,0,1,1,.33,0V4.543A.166.166,0,0,1,19.54,4.709Z" transform="translate(-17.327 -2.5)" fill="#323c6b"/>
            <path id="Path_24" data-name="Path 24" d="M25.248,5.371a.166.166,0,0,1-.165-.167V3.66a.165.165,0,1,1,.33,0V5.2A.166.166,0,0,1,25.248,5.371Z" transform="translate(-21.149 -3.162)" fill="#323c6b"/>
            <path id="Path_25" data-name="Path 25" d="M30.957,4.709a.166.166,0,0,1-.165-.167V2.667a.165.165,0,1,1,.33,0V4.543A.166.166,0,0,1,30.957,4.709Z" transform="translate(-24.971 -2.5)" fill="#323c6b"/>
            <path id="Path_26" data-name="Path 26" d="M36.665,5.371A.166.166,0,0,1,36.5,5.2V3.66a.165.165,0,1,1,.33,0V5.2A.166.166,0,0,1,36.665,5.371Z" transform="translate(-28.793 -3.162)" fill="#323c6b"/>
            <path id="Path_27" data-name="Path 27" d="M42.373,4.709a.166.166,0,0,1-.165-.167V2.667a.165.165,0,1,1,.33,0V4.543A.166.166,0,0,1,42.373,4.709Z" transform="translate(-32.615 -2.5)" fill="#323c6b"/>
            <path id="Path_28" data-name="Path 28" d="M48.082,5.371a.166.166,0,0,1-.165-.167V3.66a.165.165,0,1,1,.33,0V5.2A.166.166,0,0,1,48.082,5.371Z" transform="translate(-36.438 -3.162)" fill="#323c6b"/>
            <path id="Path_29" data-name="Path 29" d="M53.79,4.709a.166.166,0,0,1-.165-.167V2.667a.165.165,0,1,1,.33,0V4.543A.166.166,0,0,1,53.79,4.709Z" transform="translate(-40.259 -2.5)" fill="#323c6b"/>
            <path id="Path_30" data-name="Path 30" d="M53.79,67.081a.166.166,0,0,1-.165-.167V65.039a.165.165,0,1,1,.33,0v1.876A.166.166,0,0,1,53.79,67.081Z" transform="translate(-40.259 -44.081)" fill="#323c6b"/>
            <path id="Path_31" data-name="Path 31" d="M48.082,66.75a.166.166,0,0,1-.165-.167V65.039a.165.165,0,1,1,.33,0v1.545A.166.166,0,0,1,48.082,66.75Z" transform="translate(-36.438 -44.081)" fill="#323c6b"/>
            <path id="Path_32" data-name="Path 32" d="M42.373,67.081a.166.166,0,0,1-.165-.167V65.039a.165.165,0,1,1,.33,0v1.876A.166.166,0,0,1,42.373,67.081Z" transform="translate(-32.615 -44.081)" fill="#323c6b"/>
            <path id="Path_33" data-name="Path 33" d="M36.665,66.75a.166.166,0,0,1-.165-.167V65.039a.165.165,0,1,1,.33,0v1.545A.166.166,0,0,1,36.665,66.75Z" transform="translate(-28.793 -44.081)" fill="#323c6b"/>
            <path id="Path_34" data-name="Path 34" d="M30.957,67.081a.166.166,0,0,1-.165-.167V65.039a.165.165,0,1,1,.33,0v1.876A.166.166,0,0,1,30.957,67.081Z" transform="translate(-24.971 -44.081)" fill="#323c6b"/>
            <path id="Path_35" data-name="Path 35" d="M25.248,66.75a.166.166,0,0,1-.165-.167V65.039a.165.165,0,1,1,.33,0v1.545A.166.166,0,0,1,25.248,66.75Z" transform="translate(-21.149 -44.081)" fill="#323c6b"/>
            <path id="Path_36" data-name="Path 36" d="M19.54,67.081a.166.166,0,0,1-.165-.167V65.039a.165.165,0,1,1,.33,0v1.876A.166.166,0,0,1,19.54,67.081Z" transform="translate(-17.327 -44.081)" fill="#323c6b"/>
            <path id="Path_37" data-name="Path 37" d="M13.341,7.28a.166.166,0,0,1-.165-.167V5.295a.166.166,0,0,1,.165-.167h.864a.167.167,0,0,1,0,.333h-.7V7.113A.166.166,0,0,1,13.341,7.28Z" transform="translate(-13.176 -4.252)" fill="#323c6b"/>
            <path id="Path_38" data-name="Path 38" d="M59.989,33.521a.166.166,0,0,1-.165-.167v-.188a.165.165,0,1,1,.33,0v.188A.166.166,0,0,1,59.989,33.521Z" transform="translate(-44.41 -22.833)" fill="#323c6b"/>
            <path id="Path_39" data-name="Path 39" d="M59.989,38.75a.166.166,0,0,1-.165-.167V36.042a.165.165,0,1,1,.33,0v2.542A.166.166,0,0,1,59.989,38.75Z" transform="translate(-44.41 -24.75)" fill="#323c6b"/>
            <path id="Path_40" data-name="Path 40" d="M13.341,13.083a.166.166,0,0,1-.165-.167V12.75a.165.165,0,1,1,.33,0v.167A.166.166,0,0,1,13.341,13.083Z" transform="translate(-13.176 -9.222)" fill="#323c6b"/>
            <path id="Path_41" data-name="Path 41" d="M29.773,27.376H16.341a.166.166,0,0,1-.165-.167V8.295a.166.166,0,0,1,.165-.167H29.773a.166.166,0,0,1,.165.167V27.209A.166.166,0,0,1,29.773,27.376Zm-13.266-.333h13.1V8.461h-13.1Z" transform="translate(-15.185 -6.252)" fill="#323c6b"/>
            <path id="Path_42" data-name="Path 42" d="M33.142,30.456H26.277a.166.166,0,0,1-.165-.167V22.234a.168.168,0,0,1,0-.038,2.765,2.765,0,0,1,1.1-1.495,1.818,1.818,0,0,1-.058-1.363,1.527,1.527,0,0,1,.912-.95,2.963,2.963,0,0,0,1.5-.943.151.151,0,0,1,.142-.079.165.165,0,0,1,.14.079,2.962,2.962,0,0,0,1.5.943,1.529,1.529,0,0,1,.913.951A1.818,1.818,0,0,1,32.2,20.7,2.765,2.765,0,0,1,33.3,22.2a.168.168,0,0,1,0,.038v8.055A.166.166,0,0,1,33.142,30.456Zm-6.7-.333h6.534V22.253a2.567,2.567,0,0,0-1.082-1.365.168.168,0,0,1-.049-.222,1.467,1.467,0,0,0,.1-1.217,1.2,1.2,0,0,0-.714-.75,3.809,3.809,0,0,1-1.525-.906,3.814,3.814,0,0,1-1.526.907,1.2,1.2,0,0,0-.713.749,1.467,1.467,0,0,0,.1,1.217.168.168,0,0,1-.049.222,2.567,2.567,0,0,0-1.082,1.365Z" transform="translate(-21.838 -12.41)" fill="#323c6b"/>
            <path id="Path_43" data-name="Path 43" d="M31.635,29.249h-9.8a.166.166,0,0,1-.165-.167V13.914a.166.166,0,0,1,.165-.167h9.8a.166.166,0,0,1,.165.167V29.082A.166.166,0,0,1,31.635,29.249ZM22,28.916H31.47V14.08H22Z" transform="translate(-18.862 -9.998)" fill="#323c6b"/>
        </g>
        <path id="Path_44" data-name="Path 44" d="M31.678,52.377l-2.026.01a.227.227,0,0,0-.011.453l2.026-.01a.227.227,0,0,0,.011-.453Z" transform="translate(-10.887 -33.251)" fill="#fff"/>
        <path id="Path_45" data-name="Path 45" d="M38.033,52.367h-.048a.223.223,0,0,0-.218.224.217.217,0,0,0,.053.157.213.213,0,0,0,.147.073h.049a.216.216,0,0,0,.154-.063.231.231,0,0,0-.138-.39Z" transform="translate(-16.465 -33.245)" fill="#fff"/>
    </g>
</svg>
