<svg xmlns="http://www.w3.org/2000/svg" width="26" height="26" viewBox="0 0 26 26">
    <g id="kaaba-building" transform="translate(-14.897 0)">
        <path id="Path_46" data-name="Path 46" d="M40.718,3.2,27.959.007a.256.256,0,0,0-.124,0L15.076,3.2a.229.229,0,0,0-.179.219v18.1a.228.228,0,0,0,.16.213l12.759,4.254a.256.256,0,0,0,.161,0l12.759-4.254a.228.228,0,0,0,.16-.213V3.415A.229.229,0,0,0,40.718,3.2ZM15.379,10.164V7.437l12.456,3.114a.257.257,0,0,0,.124,0L40.415,7.437v2.726L27.9,13.293ZM27.9,6.371,18.25,3.959,27.9,1.525l9.734,2.412Zm-.241.408V9.012a.241.241,0,0,0,.482,0V6.779L40.415,3.71V5.157L37.36,6a.225.225,0,0,0-.163.281.24.24,0,0,0,.231.163.256.256,0,0,0,.068-.009l2.919-.805v1.34L27.9,10.1,15.379,6.969V5.84l4.448,1.112a.255.255,0,0,0,.062.008.239.239,0,0,0,.233-.168.225.225,0,0,0-.171-.277L15.379,5.371V3.71ZM27.9.46,39.719,3.415,38.572,3.7,27.959,1.072a.256.256,0,0,0-.124,0L17.317,3.726l-1.242-.31Zm.241,24.993v-5.1a.241.241,0,0,0-.482,0v5.1L15.379,21.359V12.07l.434.109a.255.255,0,0,0,.062.008.239.239,0,0,0,.233-.168.225.225,0,0,0-.171-.277l-.558-.14v-.969l1,.249v6.437a.241.241,0,0,0,.482,0V11l.51.128v4.7a.241.241,0,0,0,.482,0V11.249l2.779.695V18.49a.241.241,0,0,0,.482,0V13.5l1.216.3a.256.256,0,0,0,.062.008.239.239,0,0,0,.233-.168.225.225,0,0,0-.171-.277l-1.34-.336v-.969l6.725,1.681a.257.257,0,0,0,.124,0l12.456-3.114v5.494l-1.375.335a.226.226,0,0,0-.173.276.239.239,0,0,0,.233.17.255.255,0,0,0,.061-.007l1.254-.305V17.7l-3.257.946a.224.224,0,0,0-.159.283.24.24,0,0,0,.23.159.256.256,0,0,0,.071-.01l3.114-.9v1.459l-3.943,1.251a.223.223,0,0,0-.151.287.24.24,0,0,0,.228.154.254.254,0,0,0,.077-.012l3.789-1.2v1.249Z" transform="translate(0 0)"/>
        <path id="Path_47" data-name="Path 47" d="M158.968,255.116l-3.721-.93a.243.243,0,0,0-.295.16.225.225,0,0,0,.171.277l3.721.93a.255.255,0,0,0,.062.008.239.239,0,0,0,.233-.168A.225.225,0,0,0,158.968,255.116Z" transform="translate(-132.105 -240.644)"/>
        <path id="Path_48" data-name="Path 48" d="M261.251,255.329l-3.576.894a.225.225,0,0,0-.171.277.239.239,0,0,0,.233.168.256.256,0,0,0,.062-.008l3.576-.894a.225.225,0,0,0,.171-.277A.243.243,0,0,0,261.251,255.329Z" transform="translate(-228.842 -241.727)"/>
        <path id="Path_49" data-name="Path 49" d="M335.748,246.033l-1.2.3a.225.225,0,0,0-.171.277.239.239,0,0,0,.233.168.256.256,0,0,0,.062-.008l1.2-.3a.225.225,0,0,0,.171-.277A.243.243,0,0,0,335.748,246.033Z" transform="translate(-301.359 -232.925)"/>
        <path id="Path_50" data-name="Path 50" d="M374.359,229.224a.243.243,0,0,0-.295-.16l-2.725.681a.225.225,0,0,0-.171.277.239.239,0,0,0,.233.168.256.256,0,0,0,.062-.008l2.725-.681A.225.225,0,0,0,374.359,229.224Z" transform="translate(-336.061 -216.86)"/>
        <path id="Path_51" data-name="Path 51" d="M431.409,222.249a.256.256,0,0,0,.062-.008l.918-.229a.225.225,0,0,0,.171-.277.243.243,0,0,0-.295-.16l-.918.229a.225.225,0,0,0-.171.277A.239.239,0,0,0,431.409,222.249Z" transform="translate(-392.666 -209.769)"/>
        <path id="Path_52" data-name="Path 52" d="M240.138,329a.234.234,0,0,0-.241.226v1.491a.241.241,0,0,0,.482,0v-1.491A.234.234,0,0,0,240.138,329Z" transform="translate(-212.241 -311.482)"/>
        <path id="Path_53" data-name="Path 53" d="M65.742,360a.234.234,0,0,0-.241.226v1.4l-2.724-.765a.244.244,0,0,0-.3.152.224.224,0,0,0,.162.282l3.034.852h0a.251.251,0,0,0,.069.01.234.234,0,0,0,.241-.226v-1.7A.234.234,0,0,0,65.742,360Z" transform="translate(-44.872 -340.831)"/>
        <path id="Path_54" data-name="Path 54" d="M41.209,338a.234.234,0,0,0-.241.226v1.7a.241.241,0,0,0,.482,0v-1.7A.234.234,0,0,0,41.209,338Z" transform="translate(-24.593 -320.003)"/>
        <path id="Path_55" data-name="Path 55" d="M95.709,291.594a.234.234,0,0,0,.241-.226v-3.142a.241.241,0,0,0-.482,0v3.142A.234.234,0,0,0,95.709,291.594Z" transform="translate(-76.002 -272.665)"/>
    </g>
</svg>
