<svg xmlns="http://www.w3.org/2000/svg" width="26" height="26" viewBox="0 0 26 26">
    <path id="path2860" d="M20.462.962a.96.96,0,0,1-.5.827c-.372.267-1.019.558-1.446.794a4.747,4.747,0,0,0-1.631,1.352,4.182,4.182,0,0,0-.743,2.227h-.015a.433.433,0,1,0,0,.867h.433v2.6H15.7a.433.433,0,1,0,0,.867h.421l-.141,4.77c-.09-.058-.19-.122-.28-.178-1.076-.671-2.277-1.318-3.088-1.924a3.867,3.867,0,0,1-1.01-1.013,3.589,3.589,0,0,0,2.494-1.843.433.433,0,0,0-.521-.611,2.247,2.247,0,0,1-2.648-.928,2.2,2.2,0,0,1,.518-2.729.434.434,0,0,0-.266-.758,3.6,3.6,0,0,0-1.938.471,3.438,3.438,0,0,0,1.022,6.4A3.862,3.862,0,0,1,9.25,13.164c-.81.605-1.942,1.213-3.1,1.932a12.632,12.632,0,0,0-3.237,2.678A6.658,6.658,0,0,0,1.4,22.093v1.044a1.3,1.3,0,0,0-.867,1.228v.867a1.3,1.3,0,0,0,1.3,1.3H20.9a13.854,13.854,0,0,0,3.5-.4,4.053,4.053,0,0,0,1.142-.467,1.05,1.05,0,0,0,.561-.883L25.676,10.5h.42a.433.433,0,1,0,0-.867h-.867v-2.6h.433a.433.433,0,1,0,0-.867h-.015A4.181,4.181,0,0,0,24.9,3.936a4.747,4.747,0,0,0-1.631-1.352c-.428-.235-1.074-.527-1.446-.794a.96.96,0,0,1-.5-.827.433.433,0,0,0-.867,0ZM20.9,2.118a2.5,2.5,0,0,0,.414.368,15.235,15.235,0,0,0,1.545.855,3.916,3.916,0,0,1,1.347,1.1,3.262,3.262,0,0,1,.577,1.718H17.014a3.262,3.262,0,0,1,.577-1.718,3.916,3.916,0,0,1,1.347-1.1,15.234,15.234,0,0,0,1.545-.855,2.5,2.5,0,0,0,.414-.368Zm-8.615,8.869a2.653,2.653,0,0,1-3.616-.922,2.606,2.606,0,0,1,1-3.56,2.468,2.468,0,0,1,.488-.218,3,3,0,0,0,.017,2.921,3.038,3.038,0,0,0,2.535,1.474A2.873,2.873,0,0,1,12.281,10.987Zm5.148-3.958h1.733v2.6H17.429Zm2.6,0h1.733v2.6H20.029Zm2.6,0h1.733v2.6H22.629ZM16.984,10.5h7.825l.214,7.252a3.4,3.4,0,0,1-1.371.649,10.71,10.71,0,0,1-2.755.331,12.068,12.068,0,0,1-1.34-.071,7.268,7.268,0,0,0-.62-.894,10.511,10.511,0,0,0-2.111-1.927Zm3.913.866a2.6,2.6,0,0,0-2.6,2.6v.868a1.3,1.3,0,0,0,1.3,1.3h2.6a1.3,1.3,0,0,0,1.3-1.3v-.868a2.6,2.6,0,0,0-2.6-2.6Zm0,.867a1.729,1.729,0,0,1,1.733,1.732v.868a.432.432,0,0,1-.435.434H19.6a.432.432,0,0,1-.435-.434v-.868A1.729,1.729,0,0,1,20.9,12.229Zm-9.968.481a4.673,4.673,0,0,0,1.16,1.149c.9.669,2.037,1.275,3.158,1.974a11.884,11.884,0,0,1,3.02,2.485A5.8,5.8,0,0,1,19.6,22.093v.969H2.262v-.969a5.8,5.8,0,0,1,1.329-3.775,11.884,11.884,0,0,1,3.02-2.485c1.121-.7,2.262-1.3,3.158-1.974A4.673,4.673,0,0,0,10.929,12.71ZM8,16.888a8.937,8.937,0,0,0-.764.8A6.907,6.907,0,0,0,6.07,19.639a6.5,6.5,0,0,0-.329,1.17.433.433,0,1,0,.851.157,5.616,5.616,0,0,1,.285-1.014A6.046,6.046,0,0,1,7.9,18.244a8.1,8.1,0,0,1,.691-.723.434.434,0,0,0-.278-.752A.422.422,0,0,0,8,16.888Zm5.268.633a8.1,8.1,0,0,1,.691.723,6.046,6.046,0,0,1,1.023,1.709,5.615,5.615,0,0,1,.285,1.014.433.433,0,1,0,.851-.157,6.5,6.5,0,0,0-.329-1.17,6.907,6.907,0,0,0-1.165-1.951,8.937,8.937,0,0,0-.764-.8.424.424,0,0,0-.314-.118.434.434,0,0,0-.278.752ZM10.929,17a.428.428,0,0,0-.432.431v3.9a.432.432,0,1,0,.863,0v-3.9A.428.428,0,0,0,10.929,17ZM25.1,20.288a3.217,3.217,0,0,1-1.446.71,10.71,10.71,0,0,1-2.755.331c-.165,0-.315,0-.474-.011A6.631,6.631,0,0,0,20,19.566c.294.02.589.03.9.03a11.5,11.5,0,0,0,2.984-.363,5.651,5.651,0,0,0,1.172-.45Zm.134,4.508a.733.733,0,0,1-.17.144,3.221,3.221,0,0,1-.9.358,12.649,12.649,0,0,1-2.906.361,1.311,1.311,0,0,0,.074-.428v-.867a1.3,1.3,0,0,0-.867-1.228V22.19c.145,0,.286.007.434.007a11.5,11.5,0,0,0,2.984-.363,5.428,5.428,0,0,0,1.246-.492Zm-5.2-.868a.433.433,0,0,1,.432.436v.867a.431.431,0,0,1-.432.432H1.827a.431.431,0,0,1-.432-.432v-.867a.433.433,0,0,1,.432-.436Z" transform="translate(-0.529 -0.529)"/>
</svg>
